PathFileType	4	(X/Y/Z)	walk-thru1-1-TP.trc
DataRate	CameraRate	NumFrames	NumMarkers	Units	OrigDataRate	OrigDataStartFrame	OrigNumFrames
120.00	120.00	       4	60	mm	120.00	379	       432
Frame#	Time	Top.Head			Front.Head			Rear.Head			Jaw			C7			R.Clavicle			L.Clavicle			R.Shoulder			L.Shoulder			R.Scapula			L.Scapula			R.Scap.Inf			R.Biceps.Lateral			R.Elbow			R.Elbow.Medial			R.Forearm			R.Ulna			R.Radius			R.Wrist			R.Thumb.M1			R.Thumb.M2			R.Thumb.M3			R.Finger3.M1			R.Finger3.M2			R.Finger3.M3			L.Biceps.Lateral			L.Elbow			L.Elbow.Medial			L.Forearm			L.Ulna			L.Radius			L.Wrist			L.Thumb.M1			L.Thumb.M2			L.Thumb.M3			L.Finger3.M1			L.Finger3.M2			L.Finger3.M3			V.Sacral			R.ASIS			L.ASIS			R.Thigh			R.Thigh.Front			R.Knee			R.Knee.Medial			R.Shank			R.Ankle			R.Ankle.Medial			R.Heel			R.Toe			R.MedFoot			L.Thigh			L.Knee			L.Knee.Medial			L.Shank			L.Ankle			L.Ankle.Medial			L.Heel			L.Toe			L.MedFoot			V_mid_ASIS			V_R_Knee_JC			V_L_Knee_JC			V_R_Elbow_JC			V_L_Elbow_JC			V_R_Ankle_JC			V_L_Ankle_JC			V_R_Wrist_JC			V_L_Wrist_JC			V_R_ScaTrpz_1stMC_JC			V_R_1stMC_1stPP_JC			V_R_1stPP_1stDP_JC			V_R_LunCap_3rdMC_JC			V_R_3rdMC_3rdPP_JC			V_R_3rdPP_3rdMP_JC			V_R_3rdMP_3rdDP_JC			V_L_ScaTrpz_1stMC_JC			V_L_1stMC_1stPP_JC			V_L_1stPP_1stDP_JC			V_L_LunCap_3rdMC_JC			V_L_3rdMC_3rdPP_JC			V_L_3rdPP_3rdMP_JC			V_L_3rdMP_3rdPP_JC			V_ROOT_JC			V_R_Hip_JC			V_L_Hip_JC			V_R_GlenHum_JC			V_L_GlenHum_JC			V_ForeHead_Ctr			V_Vertex			V_Sagit_Lambdoid_Suture			V_R_FrontoTemp			V_L_FrontoTemporal			V_R_ParietalOccip			V_L_ParietalOcciptal			V_R_Temporal			V_L_Temporal			V_mid_FrontRearHead			V_mid_RLGlenHumCtrs			V_C7_vert			V_C1_vert			V_Mid_Hip			
		X1	Y1	Z1	X2	Y2	Z2	X3	Y3	Z3	X4	Y4	Z4	X5	Y5	Z5	X6	Y6	Z6	X7	Y7	Z7	X8	Y8	Z8	X9	Y9	Z9	X10	Y10	Z10	X11	Y11	Z11	X12	Y12	Z12	X13	Y13	Z13	X14	Y14	Z14	X15	Y15	Z15	X16	Y16	Z16	X17	Y17	Z17	X18	Y18	Z18	X19	Y19	Z19	X20	Y20	Z20	X21	Y21	Z21	X22	Y22	Z22	X23	Y23	Z23	X24	Y24	Z24	X25	Y25	Z25	X26	Y26	Z26	X27	Y27	Z27	X28	Y28	Z28	X29	Y29	Z29	X30	Y30	Z30	X31	Y31	Z31	X32	Y32	Z32	X33	Y33	Z33	X34	Y34	Z34	X35	Y35	Z35	X36	Y36	Z36	X37	Y37	Z37	X38	Y38	Z38	X39	Y39	Z39	X40	Y40	Z40	X41	Y41	Z41	X42	Y42	Z42	X43	Y43	Z43	X44	Y44	Z44	X45	Y45	Z45	X46	Y46	Z46	X47	Y47	Z47	X48	Y48	Z48	X49	Y49	Z49	X50	Y50	Z50	X51	Y51	Z51	X52	Y52	Z52	X53	Y53	Z53	X54	Y54	Z54	X55	Y55	Z55	X56	Y56	Z56	X57	Y57	Z57	X58	Y58	Z58	X59	Y59	Z59	X60	Y60	Z60	

379	3.150	-919.70734	51.40201	1799.17102	-1013.05719	42.21752	1680.63501	-787.06396	44.37398	1707.66455	-961.37054	42.27098	1518.10571	-770.12506	36.13998	1570.28528	-858.99884	158.20105	1472.42639	-879.64111	-67.44351	1478.09387	-812.84918	244.20512	1468.07971	-815.63757	-166.34856	1490.46802	-710.89679	122.77077	1486.39709	-719.17108	-45.12071	1489.29871	-662.20288	131.13930	1398.54004	-750.22687	299.36734	1295.86133	-705.79675	314.13217	1145.27307	-691.22131	224.81779	1127.19141	-789.47107	270.50967	1025.68616	-746.48059	310.41165	927.56598	-812.68420	254.05704	893.77100	-803.10388	293.77182	846.95087	-822.33740	250.41156	860.93079	-858.75287	220.43486	818.93219	-895.46692	219.01794	790.78809	-840.56476	297.85617	774.51617	-861.27008	256.17798	722.29065	-851.90222	213.36015	695.68585	-806.41296	-232.80795	1339.26624	-813.38220	-275.29874	1163.30334	-768.81000	-212.05821	1138.28308	-896.27625	-246.60953	1071.16248	-861.92780	-270.05884	973.03735	-939.52020	-214.41031	937.86475	-940.14160	-245.25467	879.36694	-960.23676	-199.74010	878.51038	-966.39618	-161.11481	833.04138	-986.22174	-163.70596	774.88068	-973.87006	-255.86916	809.59039	-976.56464	-232.33154	752.93048	-964.62549	-209.75449	706.61169	-671.98657	20.65051	1091.61877	-757.68280	213.38187	1032.96655	-779.09222	-159.36018	1035.02441	-910.28430	197.08295	647.57495	-1010.00128	124.20068	575.03058	-947.78827	179.00636	520.28052	-953.45050	59.78820	516.85034	-871.45337	139.66501	352.11069	-653.86066	159.59396	188.18221	-705.56958	70.26125	181.24043	-598.74054	98.78587	193.88329	-786.36481	140.81075	71.48567	-753.15680	95.05945	117.89829	-833.41388	-129.33257	651.06500	-859.10449	-97.52893	501.57617	-858.90466	16.81091	506.51596	-852.79156	-38.42742	303.47968	-736.30145	-54.63620	67.88121	-767.64209	40.49910	107.58630	-682.61682	7.53027	57.72346	-920.21710	-11.99594	43.34616	-855.76025	20.67290	69.23431																																																																																																																															
380	3.158	-924.78290	51.62382	1799.07361	-1018.93561	42.96880	1680.46570	-792.20898	47.47553	1708.31665	-967.11823	43.24645	1518.96423	-775.88043	40.76192	1572.07581	-864.81952	158.62003	1472.48901	-884.45569	-67.63326	1478.33423	-817.78619	244.13443	1468.69250	-821.68097	-166.48787	1491.13818	-717.96320	123.79288	1485.27625	-724.16211	-45.37067	1490.06445	-666.97717	130.46283	1399.18225	-755.11194	298.71091	1296.48218	-710.10553	315.06027	1145.53723	-698.45618	223.23476	1127.20959	-793.54980	272.53867	1025.90222	-752.43152	309.94742	928.13586	-816.57251	255.14622	894.45862	-806.47266	292.94257	847.28149	-826.23767	249.30984	860.31616	-863.50873	220.77138	818.54633	-900.36774	219.19815	790.37946	-845.68945	296.93155	774.62292	-866.26147	256.97314	722.48126	-856.65118	213.55972	696.14880	-812.63031	-231.72455	1339.53918	-819.55389	-275.57706	1162.74988	-776.10406	-212.03203	1139.00525	-902.66742	-247.17184	1072.54480	-870.85834	-268.98117	974.46777	-946.97827	-214.85860	938.56482	-948.05957	-246.03897	881.65967	-968.43469	-198.92265	879.68652	-975.03790	-161.96954	833.98718	-995.48639	-163.50786	776.25476	-983.15619	-255.99585	811.13385	-985.62762	-233.42784	754.79291	-974.72351	-209.55836	708.35199	-676.49628	20.67274	1091.74390	-763.00238	213.93088	1032.45984	-783.43976	-159.65854	1035.03369	-918.90509	197.66193	649.09601	-1016.98169	120.80087	577.44232	-956.38531	178.34485	522.02979	-961.46106	58.87178	518.57397	-883.74286	139.20496	352.27820	-671.27350	162.01102	181.93483	-723.25128	72.08996	176.70024	-616.60675	97.55608	185.64426	-807.76471	142.64536	70.58973	-772.88422	96.88176	114.60725	-836.07031	-129.05742	650.51788	-860.84247	-97.95294	501.46964	-859.38074	16.33263	506.42719	-853.63562	-37.67958	302.92084	-736.43164	-54.80845	68.15612	-767.91742	40.43513	107.60085	-683.08038	6.73951	58.29858	-919.97510	-12.49190	43.48063	-855.72253	20.70029	69.30849																																																																																																																															
381	3.167	-930.32538	53.04584	1798.95874	-1024.05017	42.64756	1680.50305	-798.41754	46.67133	1708.50110	-972.06860	42.21843	1519.07581	-780.67010	38.71764	1570.71326	-870.06738	158.24252	1472.31873	-890.49249	-67.81864	1478.93005	-824.00916	243.62010	1468.01428	-825.91760	-166.68536	1491.30444	-721.86108	124.01616	1485.83899	-729.12988	-45.31738	1490.00281	-672.78247	130.26549	1398.60217	-759.42120	297.44601	1295.26404	-714.17804	313.56659	1145.43750	-704.21503	223.56334	1129.23291	-798.33398	270.88339	1025.49365	-757.41156	310.11426	928.42859	-821.88843	254.28624	894.11987	-812.38654	293.58362	846.84906	-831.02356	248.90810	860.46289	-868.14142	221.63544	818.75745	-904.62067	219.53166	790.44556	-850.14777	297.02774	774.87140	-870.94733	256.72958	722.15552	-861.93695	213.44405	696.46320	-817.12823	-230.83073	1339.87158	-825.66119	-274.62100	1162.56543	-783.57141	-210.15617	1138.72314	-910.69928	-246.27007	1072.98108	-877.60614	-269.21808	974.83746	-954.69043	-215.47896	940.39874	-956.41583	-244.96652	880.99280	-975.92340	-199.10368	880.39819	-983.81891	-161.47363	835.47260	-1004.49585	-162.41068	778.40350	-991.47601	-256.07468	812.87085	-994.59796	-233.49010	755.86115	-982.95203	-210.01289	709.80798	-681.74048	21.47371	1091.75562	-767.97693	214.77145	1033.63928	-787.64459	-159.92212	1034.15015	-927.30054	196.85432	649.63049	-1024.41174	119.63058	579.65082	-965.75732	179.16464	522.83765	-968.95837	58.62780	519.63959	-897.20038	138.27533	351.95108	-690.27588	163.56920	175.91617	-741.91431	73.92414	171.00154	-634.26862	99.74326	177.81841	-826.97760	143.93286	67.18953	-791.41498	98.12463	111.12977	-839.13806	-129.18657	650.93884	-863.13110	-97.73115	500.94550	-860.46277	15.50609	506.05804	-854.25079	-38.65813	302.62018	-736.43164	-54.80845	68.15612	-765.93256	41.16632	107.40583	-683.24548	6.73720	58.47041	-919.90430	-12.37858	43.47619	-856.23383	20.61640	69.51909																																																																																																																															
382	3.175	-935.11646	52.07404	1798.90784	-1029.15381	42.67202	1681.13110	-804.06494	46.54002	1708.61609	-977.21277	42.08275	1518.22803	-784.75690	40.63978	1570.38220	-875.23059	158.35435	1472.80652	-896.21356	-67.47320	1478.54077	-828.78174	243.45276	1467.96436	-831.41754	-165.53133	1490.97192	-728.39764	123.61648	1485.65125	-734.32123	-44.21132	1490.42847	-677.83942	130.33896	1398.87354	-764.78784	297.91510	1295.32837	-719.82257	313.46396	1145.12500	-704.79620	223.81042	1127.94922	-801.89496	269.76123	1024.90222	-761.58539	310.87848	927.56409	-827.70691	253.84297	894.92737	-817.33167	293.37973	846.78424	-836.48004	250.00998	860.58691	-873.81592	221.79211	819.12079	-909.59882	220.63683	790.72656	-854.60522	297.17368	774.76581	-874.91974	256.28696	722.29474	-867.87164	214.41435	696.64075	-823.65051	-232.50262	1340.06567	-831.86792	-275.27621	1162.98047	-788.42596	-209.76154	1138.81445	-917.65833	-246.88977	1074.15698	-885.58716	-269.68079	975.76404	-962.72113	-214.51669	941.10962	-964.97870	-245.37799	883.59265	-984.61926	-200.06819	882.51282	-992.92932	-161.61069	836.65717	-1013.52228	-162.44589	779.69519	-1000.37299	-255.35014	813.94910	-1002.72858	-232.75740	756.56885	-992.95776	-210.25763	711.24951	-686.83453	21.15130	1092.01733	-774.19116	215.04208	1034.70837	-793.39832	-159.84462	1035.12317	-935.03137	196.72433	651.97424	-1031.61145	117.63107	581.83264	-974.04449	177.81534	524.30341	-975.81018	57.79290	520.87164	-908.41937	139.10774	352.49777	-706.71051	165.85550	170.07225	-757.27625	75.89372	164.82224	-651.24243	101.23944	169.43501	-851.34692	143.82248	65.46660	-814.82281	99.23869	108.49234	-842.45361	-128.66766	650.87976	-864.88092	-98.22210	500.45380	-863.56055	15.26084	505.79144	-855.69153	-39.62643	302.57635	-736.73260	-54.71304	68.58347	-769.31171	40.06554	106.70546	-682.99640	6.64439	58.78364	-920.50745	-11.99222	43.57718	-856.06647	20.82367	69.07500																																																																																																																															
